<?xml version="1.0" encoding="UTF-8"?>
<svg width="1200pt" height="1200pt" version="1.1" viewBox="0 0 1200 1200" xmlns="http://www.w3.org/2000/svg">
 <path d="m1044 96c15.914 0 31.176 6.3203 42.426 17.574 11.254 11.25 17.574 26.512 17.574 42.426v888c0 15.914-6.3203 31.176-17.574 42.426-11.25 11.254-26.512 17.574-42.426 17.574h-888c-15.914 0-31.176-6.3203-42.426-17.574-11.254-11.25-17.574-26.512-17.574-42.426v-888c0-15.914 6.3203-31.176 17.574-42.426 11.25-11.254 26.512-17.574 42.426-17.574h888m0-36h-888c-25.461 0-49.879 10.113-67.883 28.117-18.004 18.004-28.117 42.422-28.117 67.883v888c0 25.461 10.113 49.879 28.117 67.883 18.004 18.004 42.422 28.117 67.883 28.117h888c25.461 0 49.879-10.113 67.883-28.117 18.004-18.004 28.117-42.422 28.117-67.883v-888c0-25.461-10.113-49.879-28.117-67.883-18.004-18.004-42.422-28.117-67.883-28.117z"/>
 <path d="m420 561.6h360v76.801h-360z"/>
</svg>
